HIERARCHY
ROOT Hips
{
	OFFSET 0.000000 0.000000 0.000000
	CHANNELS 6 Xposition Yposition Zposition Xrotation Yrotation Zrotation
	JOINT LeftUpLeg_virtual
	{
		OFFSET 0.000000 0.000000 0.000000
		CHANNELS 3 Xrotation Yrotation Zrotation
		JOINT LeftUpLeg
		{
			OFFSET 15.427100 -6.655098 0.678600
			CHANNELS 3 Xrotation Yrotation Zrotation
			JOINT LeftLeg
			{
				OFFSET 4.081073 -39.591068 13.024000
				CHANNELS 3 Xrotation Yrotation Zrotation
				JOINT LeftFoot
				{
					OFFSET -4.081074 -37.707932 -15.979700
					CHANNELS 3 Xrotation Yrotation Zrotation
					JOINT LeftToeBase
					{
						OFFSET 5.346399 -15.068900 20.645000
						CHANNELS 3 Xrotation Yrotation Zrotation
						JOINT LeftToe_End
						{
							OFFSET 2.754700 0.931300 11.300900
							CHANNELS 3 Xrotation Yrotation Zrotation
							End Site
							{
								OFFSET 0 0 0
							}
						}
					}
				}
			}
		}
	}
	JOINT RightUpLeg_virtual
	{
		OFFSET 0.000000 0.000000 0.000000
		CHANNELS 3 Xrotation Yrotation Zrotation
		JOINT RightUpLeg
		{
			OFFSET -15.569500 -6.655098 0.678600
			CHANNELS 3 Xrotation Yrotation Zrotation
			JOINT RightLeg
			{
				OFFSET -4.081825 -39.591045 13.023800
				CHANNELS 3 Xrotation Yrotation Zrotation
				JOINT RightFoot
				{
					OFFSET 4.081824 -37.707954 -15.979600
					CHANNELS 3 Xrotation Yrotation Zrotation
					JOINT RightToeBase
					{
						OFFSET -5.346400 -15.068900 20.645000
						CHANNELS 3 Xrotation Yrotation Zrotation
						JOINT RightToe_End
						{
							OFFSET -2.754700 0.931300 11.300900
							CHANNELS 3 Xrotation Yrotation Zrotation
							End Site
							{
								OFFSET 0 0 0
							}
						}
					}
				}
			}
		}
	}
	JOINT Spine_virtual
	{
		OFFSET 0.000000 0.000000 0.000000
		CHANNELS 3 Xrotation Yrotation Zrotation
		JOINT Spine
		{
			OFFSET -0.279200 12.230698 -2.892100
			CHANNELS 3 Xrotation Yrotation Zrotation
			JOINT Spine1
			{
				OFFSET -0.232667 10.192268 -1.242267
				CHANNELS 3 Xrotation Yrotation Zrotation
				JOINT Spine1_split
				{
					OFFSET -0.232667 10.192268 -1.242267
					CHANNELS 3 Xrotation Yrotation Zrotation
					JOINT Spine2
					{
						OFFSET -0.232667 10.192268 -1.242267
						CHANNELS 3 Xrotation Yrotation Zrotation
						JOINT Neck_virtual
						{
							OFFSET 0.000000 0.000000 0.000000
							CHANNELS 3 Xrotation Yrotation Zrotation
							JOINT Neck
							{
								OFFSET -0.418800 17.814194 8.416900
								CHANNELS 3 Xrotation Yrotation Zrotation
								JOINT Head
								{
									OFFSET 0.000000 7.031097 3.806800
									CHANNELS 3 Xrotation Yrotation Zrotation
									JOINT HeadTop_End
									{
										OFFSET 0.000000 24.646606 12.978600
										CHANNELS 3 Xrotation Yrotation Zrotation
										End Site
										{
											OFFSET 0 0 0
										}
									}
								}
							}
						}
						JOINT LeftShoulder_virtual
						{
							OFFSET 0.000000 0.000000 0.000000
							CHANNELS 3 Xrotation Yrotation Zrotation
							JOINT LeftShoulder
							{
								OFFSET 8.476499 7.247704 -3.868750
								CHANNELS 3 Xrotation Yrotation Zrotation
								JOINT LeftShoulder_split
								{
									OFFSET 8.476499 7.247704 -3.868750
									CHANNELS 3 Xrotation Yrotation Zrotation
									JOINT LeftArm
									{
										OFFSET 9.308998 -2.777710 0.208600
										CHANNELS 3 Xrotation Yrotation Zrotation
										JOINT LeftForeArm
										{
											OFFSET 29.972298 0.000000 0.000000
											CHANNELS 3 Xrotation Yrotation Zrotation
											JOINT LeftHand
											{
												OFFSET 26.026505 0.000000 0.000000
												CHANNELS 3 Xrotation Yrotation Zrotation
												End Site
												{
													OFFSET 0 0 0
												}
											}
										}
									}
								}
							}
						}
						JOINT RightShoulder_virtual
						{
							OFFSET 0.000000 0.000000 0.000000
							CHANNELS 3 Xrotation Yrotation Zrotation
							JOINT RightShoulder
							{
								OFFSET -7.570500 7.247704 -3.868750
								CHANNELS 3 Xrotation Yrotation Zrotation
								JOINT RightShoulder_split
								{
									OFFSET -7.570500 7.247704 -3.868750
									CHANNELS 3 Xrotation Yrotation Zrotation
									JOINT RightArm
									{
										OFFSET -9.308998 -2.777710 0.208500
										CHANNELS 3 Xrotation Yrotation Zrotation
										JOINT RightForeArm
										{
											OFFSET -29.972300 0.000000 0.000000
											CHANNELS 3 Xrotation Yrotation Zrotation
											JOINT RightHand
											{
												OFFSET -26.026505 0.000000 0.000000
												CHANNELS 3 Xrotation Yrotation Zrotation
												End Site
												{
													OFFSET 0 0 0
												}
											}
										}
									}
								}
							}
						}
					}
				}
			}
		}
	}
}
MOTION
Frames: 8
Frame Time: 0.03333333
0.892791 92.748489 -1.528347 0.000000 0.000000 0.000000 -2.114907 6.135225 1.320192 -3.673608 8.202676 5.904631 17.475059 -0.953366 -2.461187 -15.143358 0.970902 -5.170278 -0.550197 0.229163 0.425367 0.000000 0.000000 0.000000 -2.520946 6.006704 0.934833 1.234889 -2.777526 -8.022615 16.306004 -7.462674 3.735473 -10.259484 -20.684806 4.138182 -1.849560 -0.128497 -0.594437 0.000000 0.000000 0.000000 -1.659071 4.653667 0.532832 -1.256302 -1.615765 -2.567503 0.793875 -0.240657 1.958550 1.676457 -1.419136 -0.100111 0.000000 0.000000 0.000000 0.123795 -0.132678 1.456281 7.443694 1.587173 -0.967395 -2.891341 0.149763 2.240978 0.000000 0.000000 0.000000 0.747125 0.280807 1.073928 6.710080 -25.016203 -5.992663 -0.578857 -2.203143 -1.783965 7.217398 5.064274 -79.676793 -2.298128 -16.361006 1.710418 0.000000 0.000000 0.000000 0.609774 0.263505 2.052140 1.972051 -5.994419 9.298795 0.887580 6.155803 -0.774497 7.141723 17.923492 72.920691 1.473535 15.121279 -0.577729 0.000000 0.000000 0.000000 
0.751831 92.720558 -1.643650 0.000000 0.000000 0.000000 -2.093809 6.247836 1.329218 -3.634918 8.374629 5.906128 17.481080 -1.007960 -2.520393 -15.219697 0.927837 -5.067713 -0.554293 0.227593 0.455154 0.000000 0.000000 0.000000 -2.485234 6.030777 0.941455 1.189038 -2.795016 -7.960963 16.443346 -7.486309 3.744903 -10.314968 -20.646796 4.054650 -1.842477 -0.120271 -0.612877 0.000000 0.000000 0.000000 -1.636788 4.484379 0.642040 -1.301230 -1.612879 -2.612927 0.746513 -0.263998 1.921640 1.618616 -1.415811 -0.091327 0.000000 0.000000 0.000000 0.133488 -0.126136 1.420696 7.558717 1.627602 -1.123025 -2.850918 0.293363 2.106409 0.000000 0.000000 0.000000 0.723586 0.264456 1.044871 6.760319 -25.014897 -6.025651 -0.537437 -2.009774 -2.006084 7.118557 4.790121 -79.810276 -2.314314 -16.569363 1.685705 0.000000 0.000000 0.000000 0.581726 0.255396 2.066721 1.943505 -6.001439 9.293080 0.774838 6.459555 -0.829178 7.335157 17.810572 72.874635 1.531281 15.064862 -0.647524 0.000000 0.000000 0.000000 
0.611087 92.678436 -1.670498 0.000000 0.000000 0.000000 -2.130593 6.302564 1.338815 -3.536825 8.542628 5.908476 17.404331 -1.059777 -2.529544 -15.239989 0.937921 -5.003832 -0.586658 0.227624 0.470726 0.000000 0.000000 0.000000 -2.428143 5.994300 0.954146 1.140782 -2.684396 -7.963753 16.627341 -7.465557 3.779235 -10.149399 -20.580818 4.127864 -2.062201 -0.107248 -0.653995 0.000000 0.000000 0.000000 -1.652610 4.459086 0.747899 -1.315843 -1.581282 -2.648753 0.663356 -0.287987 1.875034 1.531606 -1.310105 0.004525 0.000000 0.000000 0.000000 0.130689 -0.124892 1.398460 7.584333 1.672106 -1.347449 -2.863578 0.287970 2.006051 0.000000 0.000000 0.000000 0.676441 0.262629 1.031915 6.780142 -25.079384 -6.121817 -0.586158 -1.848545 -2.223996 7.248030 4.132229 -79.722043 -2.180987 -16.740715 1.674939 0.000000 0.000000 0.000000 0.555094 0.241945 2.051745 1.882591 -5.949165 9.367460 0.841209 6.637799 -0.957652 7.292338 17.842196 72.642948 1.536956 15.098493 -0.636610 0.000000 0.000000 0.000000 
0.496059 92.643684 -1.591164 0.000000 0.000000 0.000000 -2.205336 6.263595 1.337561 -3.387135 8.673486 5.914368 17.243970 -1.066752 -2.478443 -15.190732 0.988417 -4.982303 -0.616246 0.230063 0.460546 0.000000 0.000000 0.000000 -2.341992 5.948339 0.961639 1.130809 -2.506340 -8.001135 16.785091 -7.427952 3.815231 -9.884822 -20.494428 4.258765 -2.414387 -0.086105 -0.703207 0.000000 0.000000 0.000000 -1.662393 4.553895 0.818731 -1.281642 -1.544921 -2.669925 0.554342 -0.318674 1.827590 1.500469 -1.272626 0.174011 0.000000 0.000000 0.000000 0.112225 -0.129208 1.396980 7.543513 1.750627 -1.585517 -2.902120 0.141040 1.960090 0.000000 0.000000 0.000000 0.597961 0.266985 1.042092 6.775321 -25.195989 -6.221549 -0.675186 -1.679571 -2.457491 7.553632 3.267652 -79.372993 -1.937984 -16.875430 1.640316 0.000000 0.000000 0.000000 0.509774 0.212680 2.012474 1.795485 -5.839685 9.546346 1.055672 6.612984 -1.036878 7.076342 17.976494 72.315161 1.489501 15.311723 -0.558284 0.000000 0.000000 0.000000 
0.432382 92.638962 -1.441006 0.000000 0.000000 0.000000 -2.252839 6.149876 1.313143 -3.211020 8.714067 5.932447 17.026683 -1.007036 -2.356464 -15.091171 1.052459 -5.000323 -0.640552 0.234113 0.431209 0.000000 0.000000 0.000000 -2.247083 5.911178 0.949567 1.152606 -2.374645 -8.043872 16.903118 -7.419713 3.842700 -9.623079 -20.404447 4.357223 -2.738159 -0.054782 -0.750389 0.000000 0.000000 0.000000 -1.631221 4.653038 0.831793 -1.179749 -1.520987 -2.666242 0.429964 -0.359390 1.787292 1.530383 -1.300759 0.264780 0.000000 0.000000 0.000000 0.067716 -0.143714 1.416633 7.454969 1.855074 -1.776359 -2.964272 -0.100466 1.971006 0.000000 0.000000 0.000000 0.497211 0.271674 1.074428 6.772051 -25.339384 -6.219892 -0.692131 -1.540791 -2.686824 7.977632 2.350848 -78.790112 -1.668374 -17.066940 1.541882 0.000000 0.000000 0.000000 0.430637 0.161038 1.957636 1.688922 -5.692324 9.798931 1.357031 6.433327 -1.077532 6.743184 18.186985 71.980755 1.404509 15.847335 -0.412216 0.000000 0.000000 0.000000 
0.413482 92.655663 -1.278343 0.000000 0.000000 0.000000 -2.245954 5.998509 1.261282 -3.018432 8.603130 5.953908 16.811471 -0.873638 -2.153065 -14.994306 1.097286 -5.049359 -0.653834 0.237423 0.396943 0.000000 0.000000 0.000000 -2.165148 5.854899 0.915944 1.161313 -2.380122 -8.071831 17.036254 -7.450714 3.877910 -9.405643 -20.303697 4.439703 -2.984547 -0.016604 -0.791295 0.000000 0.000000 0.000000 -1.563317 4.681197 0.779181 -0.984695 -1.520185 -2.636082 0.301728 -0.412808 1.756934 1.641388 -1.325011 0.339002 0.000000 0.000000 0.000000 -0.014905 -0.167895 1.448123 7.338085 1.985494 -1.895736 -3.018693 -0.402764 2.041936 0.000000 0.000000 0.000000 0.374464 0.273394 1.123771 6.791044 -25.487237 -6.052388 -0.570949 -1.453927 -2.871978 8.387374 1.519417 -78.078993 -1.423487 -17.291259 1.363553 0.000000 0.000000 0.000000 0.313148 0.095133 1.894686 1.573721 -5.528619 10.062412 1.752635 6.169257 -1.050239 6.335257 18.431351 71.722368 1.311077 16.698810 -0.213820 0.000000 0.000000 0.000000 
0.451722 92.654800 -1.144157 0.000000 0.000000 0.000000 -2.200018 5.812083 1.197246 -2.821737 8.326565 5.948869 16.700315 -0.654633 -1.881476 -14.984612 1.102138 -5.124216 -0.655660 0.242154 0.358454 0.000000 0.000000 0.000000 -2.139631 5.728125 0.869817 1.109634 -2.575580 -8.081182 17.280932 -7.492781 3.926414 -9.270935 -20.155525 4.572398 -3.275405 0.024902 -0.838680 0.000000 0.000000 0.000000 -1.482699 4.571942 0.681634 -0.674095 -1.551097 -2.585167 0.185565 -0.461863 1.741293 1.832558 -1.233953 0.297706 0.000000 0.000000 0.000000 -0.127301 -0.193665 1.480740 7.198592 2.129876 -1.928292 -3.025436 -0.735081 2.146984 0.000000 0.000000 0.000000 0.244503 0.275037 1.182240 6.839800 -25.578389 -5.707692 -0.321707 -1.423214 -3.014030 8.643215 0.827847 -77.401630 -1.211961 -17.604273 1.125821 0.000000 0.000000 0.000000 0.182060 0.031727 1.827841 1.452274 -5.364688 10.284451 2.193812 5.892337 -0.994017 5.831680 18.614197 71.518603 1.235873 17.651565 0.003723 0.000000 0.000000 0.000000 
0.529060 92.574318 -1.067562 0.000000 0.000000 0.000000 -2.148168 5.550113 1.147020 -2.666066 7.901007 5.903670 16.760803 -0.343731 -1.552945 -15.111568 1.067450 -5.222092 -0.650027 0.248645 0.316305 0.000000 0.000000 0.000000 -2.213408 5.509599 0.832213 0.977386 -2.937997 -8.076300 17.722029 -7.538379 3.983549 -9.320361 -19.931781 4.747489 -3.641731 0.068540 -0.900011 0.000000 0.000000 0.000000 -1.463513 4.281682 0.575888 -0.235036 -1.624207 -2.527767 0.086150 -0.489676 1.733427 1.996015 -1.035161 0.136801 0.000000 0.000000 0.000000 -0.270228 -0.221632 1.502237 7.058086 2.243613 -1.881496 -2.957240 -1.070736 2.256879 0.000000 0.000000 0.000000 0.125879 0.275959 1.229737 6.912310 -25.592318 -5.217514 0.009095 -1.386606 -3.091117 8.615517 0.333503 -76.912219 -1.031924 -18.012614 0.868760 0.000000 0.000000 0.000000 0.075044 -0.005549 1.766675 1.330830 -5.190472 10.390624 2.504393 5.571531 -0.897113 5.170272 18.654001 71.251898 1.179098 18.440696 0.226842 0.000000 0.000000 0.000000 
